# xmcd
#
# Track frame offsets:
#       150
#       21368
#       39164
#       63147
#       84128
#       101360
#       121251
#       138947
#       162327
#       182997
#
# Disc length: 2721 seconds
#
# Revision: 2
# Processed by: cddbd v1.5.1PL0 Copyright (c) Steve Scherf et al.
# Submitted via: MusiCat 1.1
#
DISCID=720a9f0a
DTITLE=Amor - Even After That
DYEAR=2002
DGENRE=Blues
TTITLE0=Hard Hat
TTITLE1=Even After That
TTITLE2=Bring My Baby Back
TTITLE3=Superhero
TTITLE4=Can't Stand Up
TTITLE5=Lowdown
TTITLE6=Any Day Now
TTITLE7=Roughide
TTITLE8=Body Freezing
TTITLE9=No Problems
EXTD=Hatman\n2009\n
EXTT0=
EXTT1=
EXTT2=
EXTT3=
EXTT4=
EXTT5=
EXTT6=
EXTT7=
EXTT8=
EXTT9=
PLAYORDER=
